<svg xmlns:xlink="http://www.w3.org/1999/xlink" xmlns="http://www.w3.org/2000/svg" role="img" height="16" width="16" aria-label="Connect to a device" viewBox="0 0 16 16" class="Svg-sc-1bi12j5-0 hDgDGI"><path d="M0 3v8c0 .55.45 1 1 1h5v-1H1V3h5V2H1c-.55 0-1 .45-1 1zm3 11.5c0 .275.225.5.5.5H6v-1H3.5c-.275 0-.5.225-.5.5zM15 2H9c-.55 0-1 .45-1 1v11c0 .55.45 1 1 1h6c.55 0 1-.45 1-1V3c0-.55-.45-1-1-1zm0 12H9V3h6v11zm-3-8a.75.75 0 100-1.5.75.75 0 000 1.5zm0 6a2 2 0 100-4 2 2 0 000 4zm0-3c.551 0 1 .449 1 1s-.449 1-1 1-1-.449-1-1 .449-1 1-1z" fill="#B3B3B3"></path></svg>